<?xml version="1.0" standalone="no"?>
<!DOCTYPE svg PUBLIC "-//W3C//DTD SVG 20010904//EN"
 "http://www.w3.org/TR/2001/REC-SVG-20010904/DTD/svg10.dtd">
<svg version="1.0" xmlns="http://www.w3.org/2000/svg"
 width="408.000000pt" height="612.000000pt" viewBox="0 0 408.000000 612.000000"
 preserveAspectRatio="xMidYMid meet">

<g transform="translate(0.000000,612.000000) scale(0.100000,-0.100000)"
fill="#000000" stroke="none">
<path d="M660 4533 c-271 -410 -385 -889 -316 -1326 l13 -81 -39 -75 c-153
-299 -137 -648 44 -966 108 -189 261 -365 498 -574 153 -133 214 -184 455
-377 312 -249 429 -348 592 -500 67 -63 126 -114 132 -114 6 0 68 53 139 119
148 138 180 165 481 409 124 100 266 215 315 255 554 447 793 755 871 1123 25
115 23 296 -3 404 -23 95 -71 216 -102 260 -20 28 -20 32 -6 112 72 414 -34
889 -287 1288 -111 175 -102 177 -103 -23 -1 -368 -86 -666 -252 -887 l-33
-44 -72 3 c-278 11 -603 -124 -884 -367 l-63 -54 -62 54 c-116 100 -274 204
-396 259 -155 70 -347 113 -484 108 l-77 -3 -34 44 c-88 117 -153 260 -202
443 -33 121 -58 362 -53 505 2 61 3 112 1 112 -1 0 -34 -48 -73 -107z"/>
</g>
</svg>
